<?xml version="1.0" standalone="no"?>
<!DOCTYPE svg PUBLIC "-//W3C//DTD SVG 20010904//EN"
 "http://www.w3.org/TR/2001/REC-SVG-20010904/DTD/svg10.dtd">
<svg version="1.0" xmlns="http://www.w3.org/2000/svg"
 width="1024.000000pt" height="1290.000000pt" viewBox="0 0 1024.000000 1290.000000"
 preserveAspectRatio="xMidYMid meet">

<g transform="translate(0.000000,1290.000000) scale(0.100000,-0.100000)"
fill="#000000" stroke="none">
<path d="M0 6450 l0 -6450 5120 0 5120 0 0 6450 0 6450 -5120 0 -5120 0 0
-6450z m936 2915 c89 -64 129 -158 122 -288 -4 -63 -11 -94 -31 -134 -34 -65
-44 -71 -73 -42 l-23 24 26 53 c32 64 36 164 9 227 -48 113 -160 153 -235 84
l-22 -21 -25 23 c-30 28 -30 39 2 62 56 41 78 48 144 45 53 -3 73 -9 106 -33z"/>
</g>
</svg>
